HIERARCHY
ROOT Hips
{
  OFFSET 62.3042 91.6609 27.6443
  CHANNELS 6 Xposition Yposition Zposition Zrotation Xrotation Yrotation
  JOINT spine
  {
    OFFSET 0 6.84637 0.3937
    CHANNELS 3 Zrotation Xrotation Yrotation
    JOINT spine1
    {
      OFFSET 0 9.49621 0
      CHANNELS 3 Zrotation Xrotation Yrotation
      JOINT spine2
      {
        OFFSET 0 9.09909 0
        CHANNELS 3 Zrotation Xrotation Yrotation
        JOINT Neck
        {
          OFFSET 0 23.3612 1.11378
          CHANNELS 3 Zrotation Xrotation Yrotation
          JOINT Head
          {
            OFFSET 0 7.05802 0
            CHANNELS 3 Zrotation Xrotation Yrotation
            End Site
            {
              OFFSET 0 17.0844 -5.63418
            }
          }
        }
        JOINT RightShoulder
        {
          OFFSET -3.83136 9.82631 -0.533491
          CHANNELS 3 Zrotation Xrotation Yrotation
          JOINT RightArm
          {
            OFFSET 0 12.8881 0
            CHANNELS 3 Zrotation Xrotation Yrotation
            JOINT RightArmRoll
            {
              OFFSET 0 6.50617 0
              CHANNELS 3 Zrotation Xrotation Yrotation
              JOINT RightForeArm
              {
                OFFSET 0 18.9501 0
                CHANNELS 3 Zrotation Xrotation Yrotation
                JOINT RightForeArmRoll
                {
                  OFFSET 0 7.30093 0
                  CHANNELS 3 Zrotation Xrotation Yrotation
                  JOINT RightHand
                  {
                    OFFSET 0 14.6514 0
                    CHANNELS 3 Zrotation Xrotation Yrotation
                    End Site
                    {
                      OFFSET 0 0 0
                    }
                  }
                }
              }
            }
          }
        }
        JOINT LeftShoulder
        {
          OFFSET 3.83136 9.82631 -0.533491
          CHANNELS 3 Zrotation Xrotation Yrotation
          JOINT LeftArm
          {
            OFFSET 0 12.8881 0
            CHANNELS 3 Zrotation Xrotation Yrotation
            JOINT LeftArmRoll
            {
              OFFSET 0 6.50617 0
              CHANNELS 3 Zrotation Xrotation Yrotation
              JOINT LeftForeArm
              {
                OFFSET 0 18.9501 0
                CHANNELS 3 Zrotation Xrotation Yrotation
                JOINT LeftForeArmRoll
                {
                  OFFSET 0 7.30092 0
                  CHANNELS 3 Zrotation Xrotation Yrotation
                  JOINT LeftHand
                  {
                    OFFSET 0 14.6514 0
                    CHANNELS 3 Zrotation Xrotation Yrotation
                    End Site
                    {
                      OFFSET 0 0 0
                    }
                  }
                }
              }
            }
          }
        }
      }
    }
  }
  JOINT RightUpLeg
  {
    OFFSET -6.06837 -1.11278 -0.933477
    CHANNELS 3 Zrotation Xrotation Yrotation
    JOINT RightUpLegRoll
    {
      OFFSET 0 17.1796 0
      CHANNELS 3 Zrotation Xrotation Yrotation
      JOINT RightLeg
      {
        OFFSET 0 -21.2743 0
        CHANNELS 3 Zrotation Xrotation Yrotation
        JOINT RightLegRoll
        {
          OFFSET 0 21.3439 0
          CHANNELS 3 Zrotation Xrotation Yrotation
          JOINT RightFoot
          {
            OFFSET 0 17.7652 0
            CHANNELS 3 Zrotation Xrotation Yrotation
            JOINT RightToeBase
            {
              OFFSET 0 14.8508 0
              CHANNELS 3 Zrotation Xrotation Yrotation
              End Site
              {
                OFFSET 0.0062947 7.19214 -0.829004
              }
            }
          }
        }
      }
    }
  }
  JOINT LeftUpLeg
  {
    OFFSET 6.06837 -1.11278 -0.933477
    CHANNELS 3 Zrotation Xrotation Yrotation
    JOINT LeftUpLegRoll
    {
      OFFSET 0 17.1797 0
      CHANNELS 3 Zrotation Xrotation Yrotation
      JOINT LeftLeg
      {
        OFFSET 0 21.2742 0
        CHANNELS 3 Zrotation Xrotation Yrotation
        JOINT LeftLegRoll
        {
          OFFSET 0 21.5412 0
          CHANNELS 3 Zrotation Xrotation Yrotation
          JOINT LeftFoot
          {
            OFFSET 0 17.5679 0
            CHANNELS 3 Zrotation Xrotation Yrotation
            JOINT LeftToeBase
            {
              OFFSET 0 14.8508 0
              CHANNELS 3 Zrotation Xrotation Yrotation
              End Site
              {
                OFFSET -0.0282102 7.19214 -0.829005
              }
            }
          }
        }
      }
    }
  }
}
MOTION
Frames: 13
Frame Time: 0.00208333
63.5375 80.072 19.0564 4.2135 9.82329 -4.03314 -0.619169 -3.55419 0.0922557 -1.23054 -3.10706 0.226691 -1.23257 -1.46222 0.2472 12.8796 4.36181 -5.78782 -8.54466 10.2398 -2.87587 15.3319 -20.5815 -20.8622 -23.6174 45.0473 132.178 -3.3499e-005 -6.17754e-007 -3.20489e-006 -12.3096 28.9756 4.8538 -3.53652e-006 -1.52292e-006 -3.01027 8.02904 -4.95146 0.697674 -6.43763 -23.4879 28.3004 51.9424 42.5289 -153.017 1.21616e-006 1.18563e-006 3.16872e-006 16.7012 18.4925 -6.85217 1.49246e-005 -2.18809e-006 3.00405 -8.02893 -4.95146 -0.697678 169.304 39.1279 -2.98747 -180 7.01476e-015 178.651 -160.434 51.0437 169.219 -1.49799e-006 -6.71987e-007 4.15423 -48.5989 82.0281 52.6953 8.17237 25.9291 -2.69691 -169.653 31.1307 -3.33726 4.54188e-006 -4.6773e-006 -1.13873 4.94925 -52.9534 3.07947 1.73906e-006 2.80354e-007 -3.88666 78.435 83.9816 -83.0673 -8.15984 27.7232 0.488795 
63.4768 80.1309 19.1117 4.13662 9.64553 -3.95983 -0.614087 -3.50581 0.0876207 -1.22072 -3.01023 0.217598 -1.22268 -1.36539 0.237951 13.044 4.16734 -5.83029 -8.7182 10.1905 -2.89851 15.6425 -20.5841 -20.7853 -23.2587 45.1546 131.563 -3.3499e-005 -6.17754e-007 -3.20489e-006 -12.2304 28.7955 4.77884 -3.53652e-006 -1.52292e-006 -3.01027 8.02904 -4.95146 0.697674 -6.57024 -23.4672 28.215 51.6768 42.9663 -152.76 1.21616e-006 1.18563e-006 3.16872e-006 16.5197 18.4023 -6.7708 1.49246e-005 -2.18809e-006 3.00408 -8.02893 -4.95146 -0.697678 169.369 38.8974 -3.02402 -180 7.01474e-015 178.643 -160.479 50.9758 169.256 -1.49799e-006 -6.71993e-007 4.14603 -47.8455 81.9074 51.8394 8.17504 25.9955 -2.62192 -169.644 30.9396 -3.29397 4.54188e-006 -4.6773e-006 -1.14426 5.02397 -52.8431 3.1237 1.73906e-006 2.80356e-007 -3.87173 77.1052 83.9519 -81.7103 -8.15878 27.7475 0.462034 
63.4597 80.1187 19.1379 4.07146 9.47344 -3.88729 -0.608717 -3.46388 0.0832734 -1.21029 -2.92631 0.208986 -1.21218 -1.28147 0.22917 13.1628 4.07401 -5.86914 -8.85549 10.0895 -2.92363 15.8944 -20.5598 -20.6838 -22.8156 45.3102 130.914 -3.3499e-005 -6.17754e-007 -3.20489e-006 -12.1491 28.6193 4.70578 -3.53652e-006 -1.52292e-006 -3.01027 8.02904 -4.95146 0.697674 -6.74366 -23.4169 28.0621 51.3709 43.4306 -152.438 1.21616e-006 1.18563e-006 3.16872e-006 16.322 18.2927 -6.67903 1.49246e-005 -2.18809e-006 3.00412 -8.02893 -4.95146 -0.697678 169.404 38.6476 -3.03032 -180 7.01472e-015 178.637 -160.563 50.8708 169.32 -1.49799e-006 -6.71999e-007 4.13118 -47.1485 81.7919 51.0511 8.1771 26.0508 -2.55904 -169.636 30.7305 -3.26073 4.54188e-006 -4.6773e-006 -1.14885 5.06542 -52.6963 3.14791 1.73906e-006 2.80358e-007 -3.85148 75.6708 83.9143 -80.2436 -8.15767 27.7712 0.435191 
63.3552 80.3226 19.1544 4.02033 9.30955 -3.81605 -0.60305 -3.42962 0.079314 -1.19924 -2.85775 0.201039 -1.20106 -1.2129 0.221043 13.2256 4.09566 -5.90302 -8.94744 9.93015 -2.95192 16.075 -20.5051 -20.5557 -22.272 45.5208 130.223 -3.3499e-005 -6.17754e-007 -3.20489e-006 -12.0656 28.4493 4.63539 -3.53652e-006 -1.52292e-006 -3.01027 8.02904 -4.95146 0.697674 -6.96485 -23.3321 27.8311 51.0166 43.923 -152.04 1.21616e-006 1.18563e-006 3.16872e-006 16.106 18.1614 -6.57549 1.49246e-005 -2.18809e-006 3.00416 -8.02893 -4.95146 -0.697678 169.407 38.3804 -3.00318 -180 7.01471e-015 178.633 -160.687 50.7283 169.413 -1.49799e-006 -6.72004e-007 4.10973 -46.5316 81.6866 50.3573 8.17855 26.0922 -2.5115 -169.63 30.5049 -3.23901 4.54188e-006 -4.6773e-006 -1.15233 5.06942 -52.513 3.14963 1.73906e-006 2.8036e-007 -3.82603 74.1739 83.8687 -78.7097 -8.15661 27.793 0.409876 
63.3739 80.3197 19.2185 3.98142 9.14464 -3.7452 -0.596849 -3.40145 0.0750971 -1.18712 -2.80136 0.192464 -1.18886 -1.1565 0.212271 13.2452 4.24338 -5.93496 -9.01192 9.702 -2.98276 16.1893 -20.4159 -20.3932 -21.6261 45.7796 129.493 -3.3499e-005 -6.17754e-007 -3.20489e-006 -11.9821 28.2812 4.56716 -3.53652e-006 -1.52292e-006 -3.01027 8.02904 -4.95146 0.697674 -7.21981 -23.2125 27.5271 50.606 44.453 -151.567 1.21616e-006 1.18563e-006 3.16872e-006 15.871 18.0079 -6.45938 1.49246e-005 -2.18809e-006 3.00419 -8.02893 -4.95146 -0.697678 169.377 38.0822 -2.94043 -180 7.01471e-015 178.631 -160.855 50.5449 169.537 -1.49799e-006 -6.72006e-007 4.0816 -46.0065 81.5922 49.7669 8.17949 26.1205 -2.47856 -169.624 30.2481 -3.23081 4.54188e-006 -4.6773e-006 -1.15473 5.0326 -52.2845 3.12678 1.73906e-006 2.80361e-007 -3.79433 72.5738 83.8118 -77.0659 -8.15517 27.8206 0.376898 
63.3709 80.4847 19.2441 3.95073 8.96905 -3.67342 -0.58995 -3.3768 0.070033 -1.17365 -2.75199 0.182099 -1.17529 -1.10713 0.201684 13.2434 4.5093 -5.96877 -9.0727 9.40506 -3.01487 16.2552 -20.293 -20.1931 -20.8913 46.0721 128.725 -3.3499e-005 -6.17754e-007 -3.20489e-006 -11.9001 28.1097 4.49983 -3.53652e-006 -1.52292e-006 -3.01027 8.02904 -4.95146 0.697674 -7.48925 -23.0624 27.1666 50.1382 45.025 -151.029 1.21616e-006 1.18563e-006 3.16872e-006 15.6197 17.8341 -6.33182 1.49246e-005 -2.18809e-006 3.00423 -8.02893 -4.95146 -0.697678 169.318 37.7409 -2.84479 -180 7.0147e-015 178.63 -161.065 50.3182 169.695 -1.49799e-006 -6.72005e-007 4.04671 -45.5492 81.5037 49.2499 8.1801 26.1394 -2.45594 -169.613 29.9474 -3.23588 4.54188e-006 -4.6773e-006 -1.15631 4.95781 -52.0046 3.08115 1.73906e-006 2.80362e-007 -3.75549 70.8086 83.739 -75.2484 -8.15297 27.8617 0.327637 
63.3556 80.5207 19.3035 3.92729 8.78463 -3.60069 -0.582459 -3.3554 0.0643061 -1.15901 -2.70912 0.170322 -1.16054 -1.06426 0.189668 13.2229 4.87876 -6.00441 -9.12952 9.04838 -3.04804 16.2792 -20.1404 -19.9604 -20.0743 46.3934 127.92 -3.3499e-005 -6.17754e-007 -3.20489e-006 -11.8188 27.9349 4.43303 -3.53652e-006 -1.52292e-006 -3.01027 8.02904 -4.95146 0.697674 -7.77177 -22.8842 26.7559 49.6148 45.6315 -150.429 1.21616e-006 1.18563e-006 3.16872e-006 15.3542 17.6415 -6.19431 1.49246e-005 -2.18809e-006 3.00426 -8.02893 -4.95146 -0.697678 169.236 37.3605 -2.72044 -180 7.0147e-015 178.63 -161.314 50.0493 169.883 -1.49799e-006 -6.72e-007 4.00507 -45.1301 81.4178 48.7752 8.18046 26.1509 -2.44163 -169.6 29.6079 -3.25223 4.54188e-006 -4.6773e-006 -1.15718 4.85038 -51.6766 3.01619 1.73906e-006 2.80361e-007 -3.70982 68.8908 83.6488 -73.2702 -8.15003 27.914 0.264557 
63.2617 80.7025 19.3708 3.91013 8.5932 -3.52698 -0.574481 -3.337 0.0581007 -1.14342 -2.67225 0.157516 -1.14481 -1.02738 0.176606 13.1867 5.33711 -6.04183 -9.18211 8.641 -3.08204 16.2677 -19.962 -19.7 -19.1817 46.7383 127.075 -3.3499e-005 -6.17754e-007 -3.20489e-006 -11.7375 27.7568 4.36639 -3.53652e-006 -1.52292e-006 -3.01027 8.02904 -4.95146 0.697674 -8.066 -22.6802 26.3016 49.0374 46.2651 -149.769 1.21616e-006 1.18563e-006 3.16872e-006 15.0767 17.4321 -6.04833 1.49246e-005 -2.18809e-006 3.0043 -8.02893 -4.95146 -0.697678 169.132 36.9448 -2.57158 -180 7.01471e-015 178.631 -161.597 49.7397 170.097 -1.49799e-006 -6.71994e-007 3.95668 -44.7213 81.331 48.3137 8.18063 26.1567 -2.43358 -169.585 29.2343 -3.27786 4.54188e-006 -4.6773e-006 -1.15746 4.71566 -51.3039 2.93537 1.73906e-006 2.80361e-007 -3.65768 66.8353 83.5395 -71.1467 -8.1464 27.9756 0.190123 
63.2716 80.7653 19.437 3.89828 8.3966 -3.45225 -0.566121 -3.32134 0.0516012 -1.12708 -2.64085 0.14406 -1.12833 -0.995976 0.162881 13.1376 5.86972 -6.08102 -9.2302 8.19197 -3.11666 16.2274 -19.7618 -19.417 -18.2204 47.1019 126.188 -3.3499e-005 -6.17754e-007 -3.20489e-006 -11.6553 27.5755 4.29952 -3.53652e-006 -1.52292e-006 -3.01027 8.02904 -4.95146 0.697674 -8.37065 -22.4527 25.8102 48.4083 46.9184 -149.05 1.21616e-006 1.18563e-006 3.16872e-006 14.7897 17.2074 -5.89537 1.49246e-005 -2.18809e-006 3.00434 -8.02893 -4.95146 -0.697678 169.012 36.4979 -2.4023 -180 7.01471e-015 178.633 -161.911 49.3905 170.333 -1.49799e-006 -6.71986e-007 3.90155 -44.2974 81.2395 47.8385 8.18066 26.1587 -2.42977 -169.569 28.8314 -3.31079 4.54188e-006 -4.6773e-006 -1.15724 4.55897 -50.8899 2.84209 1.73906e-006 2.80359e-007 -3.5994 64.6599 83.409 -68.8963 -8.14212 28.0443 0.106804 
63.227 80.9842 19.4723 3.89075 8.19668 -3.37647 -0.557486 -3.30816 0.0449921 -1.11019 -2.61441 0.130334 -1.11128 -0.969527 0.148876 13.0784 6.46196 -6.12191 -9.27346 7.71034 -3.15167 16.1647 -19.5438 -19.1161 -17.1975 47.4788 125.258 -3.3499e-005 -6.17754e-007 -3.20489e-006 -11.5714 27.3912 4.23207 -3.53652e-006 -1.52292e-006 -3.01027 8.02904 -4.95146 0.697674 -8.68453 -22.2044 25.288 47.73 47.5842 -148.275 1.21616e-006 1.18563e-006 3.16872e-006 14.4951 16.9693 -5.7369 1.49246e-005 -2.18809e-006 3.00437 -8.02893 -4.95146 -0.697678 168.879 36.0236 -2.21662 -180 7.01472e-015 178.636 -162.252 49.003 170.588 -1.49799e-006 -6.71978e-007 3.83968 -43.8347 81.1395 47.3244 8.18061 26.1586 -2.42815 -169.552 28.4041 -3.34905 4.54188e-006 -4.6773e-006 -1.15665 4.38552 -50.438 2.73971 1.73906e-006 2.80358e-007 -3.5353 62.3846 83.2557 -66.5394 -8.13727 28.1181 0.017076 
63.2233 81.0635 19.5552 3.88653 7.99527 -3.2996 -0.54868 -3.2972 0.0384577 -1.09295 -2.59241 0.116718 -1.09389 -0.947518 0.134977 13.012 7.09917 -6.16443 -9.31154 7.20516 -3.18685 16.0866 -19.3122 -18.8023 -16.1202 47.864 124.285 -3.3499e-005 -6.17754e-007 -3.20489e-006 -11.4851 27.204 4.16367 -3.53652e-006 -1.52292e-006 -3.01027 8.02904 -4.95146 0.697674 -9.00663 -21.9378 24.7413 47.0055 48.2554 -147.448 1.21616e-006 1.18563e-006 3.16872e-006 14.1953 16.7194 -5.57436 1.49246e-005 -2.18809e-006 3.00441 -8.02893 -4.95146 -0.697678 168.736 35.526 -2.01844 -180 7.01473e-015 178.64 -162.614 48.5787 170.858 -1.49799e-006 -6.71969e-007 3.77107 -43.3114 81.0271 46.7485 8.18054 26.1584 -2.42668 -169.534 27.9572 -3.39072 4.54188e-006 -4.6773e-006 -1.1558 4.2004 -49.9515 2.63145 1.73906e-006 2.80356e-007 -3.46572 60.0311 83.0774 -64.0981 -8.13194 28.1949 -0.0765726 
63.1842 81.3087 19.6031 3.88463 7.79422 -3.22159 -0.53981 -3.28819 0.0321823 -1.07556 -2.57433 0.103594 -1.07636 -0.929431 0.121565 12.9409 7.76675 -6.20842 -9.34408 6.68546 -3.22196 15.9999 -19.071 -18.4802 -14.9963 48.2523 123.268 -3.3499e-005 -6.17754e-007 -3.20489e-006 -11.3956 27.014 4.09394 -3.53652e-006 -1.52292e-006 -3.01027 8.02904 -4.95146 0.697674 -9.3362 -21.6559 24.1764 46.2387 48.9249 -146.572 1.21616e-006 1.18563e-006 3.16872e-006 13.8923 16.4595 -5.4092 1.49246e-005 -2.18809e-006 3.00444 -8.02893 -4.95146 -0.697678 168.586 35.0091 -1.81154 -180 7.01475e-015 178.645 -162.995 48.1187 171.139 -1.49799e-006 -6.71962e-007 3.69573 -42.7087 80.8981 46.0905 8.1805 26.1598 -2.42334 -169.516 27.4956 -3.43388 4.54188e-006 -4.6773e-006 -1.1548 4.00852 -49.4339 2.52038 1.73906e-006 2.80355e-007 -3.39101 57.6219 82.8725 -61.5955 -8.12624 28.2726 -0.171641 
63.1581 81.4039 19.6768 3.88401 7.59536 -3.14239 -0.530982 -3.28089 0.0263503 -1.05824 -2.55965 0.0913412 -1.0589 -0.91475 0.109026 12.868 8.45005 -6.25367 -9.37065 6.16029 -3.25675 15.9118 -18.8247 -18.1546 -13.8339 48.6385 122.207 -3.3499e-005 -6.17754e-007 -3.20489e-006 -11.3021 26.8212 4.02253 -3.53652e-006 -1.52292e-006 -3.01027 8.02904 -4.95146 0.697674 -9.67268 -21.3617 23.5994 45.4345 49.5862 -145.653 1.21616e-006 1.18563e-006 3.16872e-006 13.5881 16.1914 -5.24282 1.49246e-005 -2.18809e-006 3.00448 -8.02893 -4.95146 -0.697678 168.433 34.477 -1.59955 -180 7.01476e-015 178.65 -163.391 47.6245 171.429 -1.49799e-006 -6.71956e-007 3.61367 -42.0105 80.7481 45.3329 8.18053 26.1647 -2.41608 -169.499 27.0242 -3.47666 4.54188e-006 -4.6773e-006 -1.15376 3.8146 -48.8887 2.40944 1.73906e-006 2.80353e-007 -3.31148 55.1801 82.639 -59.0552 -8.12033 28.3492 -0.265613 
